<?xml version="1.0" encoding="UTF-8" standalone="no"?>
<!DOCTYPE svg PUBLIC "-//W3C//DTD SVG 1.1//EN" "http://www.w3.org/Graphics/SVG/1.1/DTD/svg11.dtd">
<svg width="100%" height="100%" viewBox="0 0 512 512" version="1.1" xmlns="http://www.w3.org/2000/svg" xmlnsXlink="http://www.w3.org/1999/xlink" xmlSpace="preserve" xmlnsSerif="http://www.serif.com/" style="fill-rule:evenodd;clip-rule:evenodd;stroke-linejoin:round;stroke-miterlimit:2;">
    <g id="Add" transform="matrix(10.458,1.28905e-31,1.28905e-31,10.458,-14453.4,-12791.9)">
        <path d="M1406.5,1225.7C1394.3,1225.7 1384.5,1235.5 1384.5,1247.7C1384.5,1259.9 1394.3,1269.7 1406.5,1269.7C1418.7,1269.7 1428.5,1259.9 1428.5,1247.7C1428.5,1235.5 1418.7,1225.7 1406.5,1225.7ZM1406.5,1227.7C1417.5,1227.7 1426.5,1236.7 1426.5,1247.7C1426.5,1258.7 1417.5,1267.7 1406.5,1267.7C1395.5,1267.7 1386.5,1258.7 1386.5,1247.7C1386.5,1236.7 1395.5,1227.7 1406.5,1227.7ZM1407.5,1236.7L1407.5,1246.7L1417.5,1246.7L1417.5,1248.7L1407.5,1248.7L1407.5,1258.7L1405.5,1258.7L1405.5,1248.7L1395.5,1248.7L1395.5,1246.7L1405.5,1246.7L1405.5,1236.7L1407.5,1236.7Z" style="fill:rgb(255,252,252);stroke:currentColor;stroke-width:2.08px;"/>
    </g>
</svg>
