<?xml version="1.0" encoding="UTF-8" standalone="no"?>
<!DOCTYPE svg PUBLIC "-//W3C//DTD SVG 1.1//EN" "http://www.w3.org/Graphics/SVG/1.1/DTD/svg11.dtd">
<svg width="100%" height="100%" viewBox="0 0 512 512" version="1.1" xmlns="http://www.w3.org/2000/svg" xmlnsXlink="http://www.w3.org/1999/xlink" xmlSpace="preserve" style="fill-rule:evenodd;clip-rule:evenodd;stroke-linejoin:round;stroke-miterlimit:2;">
    <g transform="matrix(9.27943,1.14378e-31,1.16496e-31,9.45127,-2298.86,-168.493)">
        <g id="New">
            <rect x="248" y="18" width="55" height="54" style="fill:none;"/>
        </g>
    </g>
    <g id="ba" transform="matrix(8.39308,3.10358e-31,1.03453e-31,8.39308,-725.653,-3078.82)">
        <path d="M116.8,377.8C105.2,377.8 95.8,385.5 95.8,394.9C95.8,400.6 99.1,405.5 104.4,408.6C103.7,412.1 99.9,415.8 99.9,415.8C99.9,415.8 106.4,416.6 111.2,411.8C111.2,411.8 116.8,412 118.8,411.9C130.4,411.6 137.8,404.2 137.8,394.8C137.8,385.4 128.4,377.8 116.8,377.8ZM118.8,409.9C117,409.9 110.4,409.8 110.3,409.7C109.5,411 105.4,414 103.4,413.8C104.8,412.3 106.5,408.2 106.4,407.4C105.7,407 105.1,406.6 104.4,406.2C100.3,403.4 97.7,399.3 97.7,394.7C97.7,386.4 106.2,379.6 116.7,379.6C127.2,379.6 135.7,386.4 135.7,394.7C135.7,403 129.3,409.9 118.8,409.9Z" style="fill-rule:nonzero;stroke:rgb(219, 88, 88);stroke-width:2px;"/>
    </g>
</svg>
