<?xml version="1.0" encoding="UTF-8" standalone="no"?>
<!DOCTYPE svg PUBLIC "-//W3C//DTD SVG 1.1//EN" "http://www.w3.org/Graphics/SVG/1.1/DTD/svg11.dtd">
<svg width="100%" height="100%" viewBox="0 0 512 512" version="1.1" xmlns="http://www.w3.org/2000/svg" xmlnsXlink="http://www.w3.org/1999/xlink" xmlSpace="preserve" style="fill-rule:evenodd;clip-rule:evenodd;stroke-miterlimit:1.5;">
    <g id="Albums" transform="matrix(12.0699,1.00952e-30,-1.4878e-31,13.6497,-2704.82,-1315.7)">
        <path d="M236.226,102.564C235.798,102.564 235.451,102.216 235.451,101.786C235.451,101.358 235.798,101.01 236.226,101.01L257.837,101.01C258.265,101.01 258.611,101.358 258.611,101.786C258.611,102.216 258.265,102.564 257.837,102.564L236.226,102.564ZM238.096,99.555C237.71,99.555 237.395,99.241 237.395,98.852L237.395,98.703C237.395,98.315 237.71,98 238.096,98L255.638,98C256.024,98 256.338,98.315 256.338,98.703L256.338,98.852C256.338,99.241 256.024,99.555 255.638,99.555L238.096,99.555Z" style="fill:rgb(250,92,92);"/>
    </g>
    <g id="Health-Data" transform="matrix(13.7286,1.01536e-30,-1.69226e-31,13.7286,-986.74,-1171.41)">
        <path d="M76,101C76,99.895 76.887,99 78,99L84,99C85.105,99 86,99.887 86,101L86,107C86,108.105 85.113,109 84,109L78,109C76.895,109 76,108.113 76,107L76,101ZM88,101C88,99.895 88.887,99 90,99L96,99C97.105,99 98,99.887 98,101L98,107C98,108.105 97.113,109 96,109L90,109C88.895,109 88,108.113 88,107L88,101ZM88,113C88,111.895 88.887,111 90,111L96,111C97.105,111 98,111.887 98,113L98,119C98,120.105 97.113,121 96,121L90,121C88.895,121 88,120.113 88,119L88,113ZM76,113C76,111.895 76.887,111 78,111L84,111C85.105,111 86,111.887 86,113L86,119C86,120.105 85.113,121 84,121L78,121C76.895,121 76,120.113 76,119L76,113Z" style="fill:currentColor;"/>
    </g>
    <g id="Duplicate" transform="matrix(18.2873,1.57793e-30,-2.25419e-31,18.2873,-5767.13,-1687.54)">
        <path d="M321.215,99.471C321.215,98.659 321.868,98 322.671,98L338.314,98C339.119,98 339.771,98.659 339.771,99.471L339.771,115.934C339.771,116.748 339.119,117.404 338.314,117.404L336.552,117.404L336.552,102.49C336.552,101.678 335.9,101.021 335.095,101.021L321.215,101.021L321.215,99.471Z" style="fill:currentColor;"/>
    </g>
</svg>
