<?xml version="1.0" encoding="UTF-8" standalone="no"?>
<!DOCTYPE svg PUBLIC "-//W3C//DTD SVG 1.1//EN" "http://www.w3.org/Graphics/SVG/1.1/DTD/svg11.dtd">
<svg width="100%" height="100%" viewBox="0 0 512 512" version="1.1" xmlns="http://www.w3.org/2000/svg" xmlnsXlink="http://www.w3.org/1999/xlink" xmlSpace="preserve" style="fill-rule:evenodd;clip-rule:evenodd;stroke-linecap:square;stroke-linejoin:round;stroke-miterlimit:1.5;">
    <g transform="matrix(-1.73423,-2.12382e-16,2.24542e-16,-1.83353,709.193,714.571)">
        <path d="M258.928,179.558L322.684,281.047L195.172,281.047L258.928,179.558Z" style="fill:currentcolor;fill-opacity:0;stroke:currentcolor;stroke-width:14.94px;"/>
    </g>
    <g transform="matrix(0.0072943,1.05903,3.70315,1.12835,-238.603,-72.724)">
        <path d="M346.511,79.37L389.693,134.018L285.601,134.018L346.511,79.37Z" style="fill:currentcolor;fill-opacity:0;stroke:currentcolor;stroke-width:8.76px;"/>
    </g>
    <g transform="matrix(-0.0072943,1.05903,-3.70315,1.12835,759.051,-73.2124)">
        <path d="M346.511,79.37L389.693,134.018L285.601,134.018L346.511,79.37Z" style="fill:currentcolor;fill-opacity:0;stroke:currentcolor;stroke-width:8.76px;"/>
    </g>
    <g transform="matrix(0.930489,-0.505759,-0.750951,-3.79771,199.874,856.174)">
        <path d="M346.511,79.37L389.693,134.018L285.601,134.018L346.511,79.37Z" style="fill:currentcolor;fill-opacity:0;stroke:currentcolor;stroke-width:8.76px;"/>
    </g>
    <g transform="matrix(0.906005,-0.548413,2.90062,2.56377,-281.58,16.0241)">
        <path d="M346.511,79.37L389.693,134.018L285.601,134.018L346.511,79.37Z" style="fill:currentcolor;fill-opacity:0;stroke:currentcolor;stroke-width:8.76px;"/>
    </g>
    <g transform="matrix(-0.912464,-0.537598,0.881683,-3.76951,300.376,865.543)">
        <path d="M346.511,79.37L389.693,134.018L285.601,134.018L346.511,79.37Z" style="fill:currentcolor;fill-opacity:0;stroke:currentcolor;stroke-width:8.76px;"/>
    </g>
    <g transform="matrix(-0.926362,-0.51328,-2.80021,2.67308,798.839,-8.3152)">
        <path d="M346.511,79.37L389.693,134.018L285.601,134.018L346.511,79.37Z" style="fill:currentcolor;fill-opacity:0;stroke:currentcolor;stroke-width:8.76px;"/>
    </g>
</svg>
