<?xml version="1.0" encoding="UTF-8" standalone="no"?>
<!DOCTYPE svg PUBLIC "-//W3C//DTD SVG 1.1//EN" "http://www.w3.org/Graphics/SVG/1.1/DTD/svg11.dtd">
<svg width="100%" height="100%" viewBox="0 0 512 512" version="1.1" xmlns="http://www.w3.org/2000/svg" xmlns:xlink="http://www.w3.org/1999/xlink" xml:space="preserve" xmlns:serif="http://www.serif.com/" style="fill-rule:evenodd;clip-rule:evenodd;stroke-linejoin:round;stroke-miterlimit:2;">
    <g transform="matrix(1,0,0,1,0,-2304)">
        <rect x="0" y="2304" width="512" height="512" style="fill:rgb(44,40,49);"/>
    </g>
    <g transform="matrix(-2.11439,-2.58938e-16,2.58938e-16,-2.11439,798.062,771.07)">
        <path d="M258.928,179.558L322.684,281.047L195.172,281.047L258.928,179.558Z" style="fill:rgb(250,92,92);fill-opacity:0;"/>
        <path d="M258.928,179.558L322.684,281.047L195.172,281.047L258.928,179.558ZM258.928,191.412C270.706,210.161 298.852,254.966 311.275,274.741C311.275,274.741 206.58,274.741 206.58,274.741L258.928,191.412Z" style="fill:rgb(250,92,92);"/>
    </g>
    <g transform="matrix(0.991096,-0.523003,3.10755,2.71084,-325.37,-31.1724)">
        <path d="M337.647,79.37L389.693,134.018L285.601,134.018L337.647,79.37Z" style="fill:rgb(250,92,92);fill-opacity:0;"/>
        <path d="M337.647,79.37L389.693,134.018L285.601,134.018L337.647,79.37ZM336.493,93.147L372.118,130.553C372.118,130.553 300.869,130.553 300.869,130.553C300.869,130.553 336.493,93.147 336.493,93.147L336.493,93.147Z" style="fill:rgb(250,92,92);"/>
    </g>
    <g transform="matrix(1.01907,-0.621973,-0.71272,-3.91511,171.906,891.061)">
        <path d="M337.647,79.37L389.693,134.018L285.601,134.018L337.647,79.37Z" style="fill:rgb(250,92,92);fill-opacity:0;"/>
        <path d="M337.647,79.37L389.693,134.018L285.601,134.018L337.647,79.37ZM336.459,92.38L300.224,130.427C300.224,130.427 372.693,130.427 372.693,130.427L336.459,92.38Z" style="fill:rgb(250,92,92);"/>
    </g>
    <g transform="matrix(-0.890951,-0.522659,0.653456,-3.98282,296.981,861.42)">
        <path d="M337.647,79.37L389.693,134.018L285.601,134.018L337.647,79.37Z" style="fill:rgb(250,92,92);fill-opacity:0;"/>
        <path d="M337.647,79.37L389.693,134.018L285.601,134.018L337.647,79.37ZM336.464,94.269L370.949,130.477C370.949,130.477 301.98,130.477 301.98,130.477L336.464,94.269Z" style="fill:rgb(250,92,92);"/>
    </g>
    <g transform="matrix(-0.987219,-0.527819,-3.06994,2.64887,829.566,-23.8062)">
        <path d="M337.647,79.37L389.693,134.018L285.601,134.018L337.647,79.37Z" style="fill:rgb(250,92,92);fill-opacity:0;"/>
        <path d="M337.647,79.37L389.693,134.018L285.601,134.018L337.647,79.37ZM336.475,93.174L300.932,130.494C300.932,130.494 372.018,130.494 372.018,130.494L336.475,93.174Z" style="fill:rgb(250,92,92);"/>
    </g>
    <g transform="matrix(-0.0667633,1.19458,-3.9619,1.2782,801.237,-136.823)">
        <path d="M337.647,79.37L389.693,134.018L285.601,134.018L337.647,79.37Z" style="fill:rgb(250,92,92);fill-opacity:0;"/>
        <path d="M337.647,79.37L389.693,134.018L285.601,134.018L337.647,79.37ZM336.508,92.316L372.954,130.585C372.954,130.585 300.061,130.585 300.061,130.585L336.508,92.316Z" style="fill:rgb(250,92,92);"/>
    </g>
    <g transform="matrix(0.0204884,1.09446,3.70498,1.34904,-252.587,-108.787)">
        <path d="M337.647,79.37L389.693,134.018L285.601,134.018L337.647,79.37Z" style="fill:rgb(250,92,92);fill-opacity:0;"/>
        <path d="M337.647,79.37L389.693,134.018L285.601,134.018L337.647,79.37ZM336.442,93.491L301.296,130.394C301.296,130.394 371.587,130.394 371.587,130.394C371.587,130.394 336.442,93.491 336.442,93.491L336.442,93.491Z" style="fill:rgb(250,92,92);"/>
    </g>
    <g transform="matrix(1.86439,0,0,1.89866,-89.1783,-52.3048)">
        <path d="M184.112,31.227L247.217,121.006L121.006,121.006L184.112,31.227Z" style="fill:rgb(250,92,92);fill-opacity:0;"/>
        <path d="M184.112,31.227L247.217,121.006L121.006,121.006L184.112,31.227ZM184.112,43.59L233.592,113.984C233.592,113.984 134.632,113.984 134.632,113.984L184.112,43.59Z" style="fill:rgb(250,92,92);"/>
    </g>
    <g transform="matrix(-0.98457,-1.58322,1.56703,-0.974508,178.342,692.982)">
        <path d="M184.112,31.227L247.217,121.006L121.006,121.006L184.112,31.227Z" style="fill:rgb(250,92,92);fill-opacity:0;"/>
        <path d="M184.112,31.227L247.217,121.006L121.006,121.006L184.112,31.227ZM184.112,41.198L236.151,115.233C236.151,115.233 132.073,115.233 132.073,115.233L184.112,41.198Z" style="fill:rgb(250,92,92);"/>
    </g>
    <g transform="matrix(-0.990177,1.57972,-1.60261,-1.00453,694.214,111.601)">
        <path d="M184.112,31.227L247.217,121.006L121.006,121.006L184.112,31.227Z" style="fill:rgb(250,92,92);fill-opacity:0;"/>
        <path d="M184.112,31.227L247.217,121.006L121.006,121.006L184.112,31.227ZM184.112,43.605L233.562,113.957C233.562,113.957 134.662,113.957 134.662,113.957L184.112,43.605Z" style="fill:rgb(250,92,92);"/>
    </g>
</svg>
