<?xml version="1.0" encoding="UTF-8" standalone="no"?>
<!DOCTYPE svg PUBLIC "-//W3C//DTD SVG 1.1//EN" "http://www.w3.org/Graphics/SVG/1.1/DTD/svg11.dtd">
<svg width="100%" height="100%" viewBox="0 0 512 512" version="1.1" xmlns="http://www.w3.org/2000/svg" xmlnsXlink="http://www.w3.org/1999/xlink" xmlSpace="preserve" style="fill-rule:evenodd;clip-rule:evenodd;stroke-linecap:round;stroke-linejoin:round;stroke-miterlimit:1.5;">
    <g transform="matrix(1.52679,0,0,1.52679,-5956.83,-1302.34)">
        <path d="M4082.93,885.257C4074.25,884.414 4065.52,884.414 4056.84,885.257L4053.57,912.834C4045.74,914.031 4038.08,916.086 4030.7,918.961L4014.08,896.717C4006.14,900.324 3998.58,904.691 3991.49,909.758L4002.44,935.278C3996.26,940.227 3990.65,945.841 3985.7,952.018L3960.18,941.067C3955.11,948.157 3950.74,955.721 3947.14,963.654L3969.38,980.279C3966.51,987.654 3964.45,995.323 3963.26,1003.15L3935.68,1006.42C3934.84,1015.1 3934.84,1023.83 3935.68,1032.5L3963.26,1035.78C3964.45,1043.6 3966.51,1051.27 3969.38,1058.65L3947.14,1075.27C3950.74,1083.21 3955.11,1090.77 3960.18,1097.86L3985.7,1086.91C3990.65,1093.09 3996.26,1098.7 4002.44,1103.65L3991.49,1129.17C3998.58,1134.24 4006.14,1138.6 4014.08,1142.21L4030.7,1119.97C4038.08,1122.84 4045.74,1124.9 4053.57,1126.09L4056.84,1153.67C4065.52,1154.51 4074.25,1154.51 4082.93,1153.67L4086.2,1126.09C4094.03,1124.9 4101.69,1122.84 4109.07,1119.97L4125.69,1142.21C4133.63,1138.6 4141.19,1134.24 4148.28,1129.17L4137.33,1103.65C4143.51,1098.7 4149.12,1093.09 4154.07,1086.91L4179.59,1097.86C4184.66,1090.77 4189.02,1083.21 4192.63,1075.27L4170.39,1058.65C4173.26,1051.27 4175.32,1043.6 4176.51,1035.78L4204.09,1032.5C4204.93,1023.83 4204.93,1015.1 4204.09,1006.42L4176.51,1003.15C4175.32,995.323 4173.26,987.654 4170.39,980.279L4192.63,963.654C4189.02,955.721 4184.66,948.157 4179.59,941.067L4154.07,952.018C4149.12,945.841 4143.51,940.227 4137.33,935.278L4148.28,909.758C4141.19,904.691 4133.63,900.324 4125.69,896.717L4109.07,918.961C4101.69,916.086 4094.03,914.031 4086.2,912.834L4082.93,885.257ZM4069.88,992.496C4084.77,992.496 4096.85,1004.58 4096.85,1019.46C4096.85,1034.35 4084.77,1046.43 4069.88,1046.43C4055,1046.43 4042.92,1034.35 4042.92,1019.46C4042.92,1004.58 4055,992.496 4069.88,992.496Z" style="fill:none;stroke:currentColor;stroke-width:14px;"/>
    </g>
</svg>
