<?xml version="1.0" encoding="UTF-8" standalone="no"?>
<!DOCTYPE svg PUBLIC "-//W3C//DTD SVG 1.1//EN" "http://www.w3.org/Graphics/SVG/1.1/DTD/svg11.dtd">
<svg width="100%" height="100%" viewBox="0 0 512 512" version="1.1" xmlns="http://www.w3.org/2000/svg" xmlnsXlink="http://www.w3.org/1999/xlink" xmlSpace="preserve" style="fill-rule:evenodd;clip-rule:evenodd;stroke-miterlimit:1.5;">
    <g id="Hail" transform="matrix(34.6291,-1.03342e-16,3.45242e-16,20.9641,-11159.6,-4452.68)">
        <path d="M327.5,223.362L327.5,235.002C327.5,235.554 327.948,236 328.5,236C329.056,236 329.5,235.553 329.5,235.002L329.5,228.5L330,228.5L330,235.002C330,235.554 330.448,236 331,236C331.556,236 332,235.553 332,235.002L332,223.495L332.493,223.495C332.817,223.495 332.988,223.932 333.013,224L333,227.757C333,228.162 333.336,228.5 333.75,228.5C334.167,228.5 334.5,228.167 334.5,227.757L334.5,224L334.49,224C334.474,223.812 334.365,222.857 333.766,221.935C333.37,221.325 332.579,221.102 332,221.021L332,221L331.824,221C331.518,220.969 331.305,220.978 331.305,220.978L331.305,221L327.55,221C326.933,220.876 325.136,217.576 325.206,215.586C325.183,215.372 324.986,215.191 324.767,215.198L324.638,215.203C324.421,215.21 324.249,215.393 324.257,215.611C324.213,216.672 324.3,217.681 324.513,218.639C324.553,218.948 325.125,220.775 325.331,220.953C326.037,222.281 326.762,223.014 327.5,223.362Z" style="fill:currentColor;"/>
    </g>
    <g transform="matrix(3.77507,0,0,3.58559,-667.513,-10971.2)">
        <circle cx="245.12" cy="3088.94" r="17.516" style="fill:none;stroke:rgb(250,92,92);stroke-width:1.81px;"/>
    </g>
    <g transform="matrix(3.77507,0,0,3.58559,-658.295,-10967.1)">
        <path d="M226.657,3088.01C229.379,3081.87 235.532,3077.58 242.677,3077.58C249.823,3077.58 255.976,3081.87 258.698,3088.01C255.976,3094.15 249.823,3098.44 242.677,3098.44C235.532,3098.44 229.379,3094.15 226.657,3088.01Z" style="fill:none;stroke:rgb(250,92,92);stroke-width:3.4px;"/>
    </g>
    <g transform="matrix(4.30644,0,0,4.0903,-790.899,-12523.4)">
        <circle cx="243.526" cy="3087.46" r="4.259" style="fill:rgb(250,92,92);"/>
    </g>
    <g transform="matrix(2.64455,0,0,2.51181,-453.586,-7711.71)">
        <circle cx="243.526" cy="3087.46" r="4.259" style="fill:rgb(250,92,92);"/>
    </g>
    <g transform="matrix(2.64455,0,0,2.51181,-387.25,-7739.17)">
        <circle cx="243.526" cy="3087.46" r="4.259" style="fill:rgb(250,92,92);"/>
    </g>
    <g transform="matrix(2.64455,0,0,2.51181,-316.911,-7710.74)">
        <circle cx="243.526" cy="3087.46" r="4.259" style="fill:rgb(250,92,92);"/>
    </g>
</svg>
