<?xml version="1.0" encoding="UTF-8" standalone="no"?>
<!DOCTYPE svg PUBLIC "-//W3C//DTD SVG 1.1//EN" "http://www.w3.org/Graphics/SVG/1.1/DTD/svg11.dtd">
<svg width="100%" height="100%" viewBox="0 0 512 512" version="1.1" xmlns="http://www.w3.org/2000/svg" xmlnsXlink="http://www.w3.org/1999/xlink" xmlSpace="preserve" xmlnsSerif="http://www.serif.com/" style="fill-rule:evenodd;clip-rule:evenodd;stroke-linejoin:round;stroke-miterlimit:2;">
    <g id="Facetime" transform="matrix(10.728,1.32233e-31,1.32233e-31,10.728,-11791,-12301)">
        <path d="M1136.8,1155.55C1139,1155.55 1140.8,1157.35 1140.8,1159.55L1140.8,1181.55C1140.8,1183.75 1139,1185.55 1136.8,1185.55L1108.8,1185.55C1106.6,1185.55 1104.8,1183.75 1104.8,1181.55L1104.8,1159.55C1104.8,1157.35 1106.6,1155.55 1108.8,1155.55L1136.8,1155.55ZM1136.8,1183.55C1137.9,1183.55 1138.8,1182.65 1138.8,1181.55L1138.8,1159.55C1138.8,1158.45 1137.9,1157.55 1136.8,1157.55L1108.8,1157.55C1107.7,1157.55 1106.8,1158.45 1106.8,1159.55L1106.8,1181.55C1106.8,1182.65 1107.7,1183.55 1108.8,1183.55L1136.8,1183.55Z" style="fill:currentColor;stroke:currentColor;"/>
    </g>
    <g id="Options" transform="matrix(6.4117,7.90303e-32,7.90303e-32,6.4117,-9356.21,-8338.13)">
        <path d="M1477.8,1349.5L1481.8,1349.5L1481.8,1353.5L1477.8,1353.5L1477.8,1349.5ZM1519.8,1350.5L1519.8,1352.5L1485.8,1352.5L1485.8,1350.5L1519.8,1350.5ZM1477.8,1338.5L1481.8,1338.5L1481.8,1342.5L1477.8,1342.5L1477.8,1338.5ZM1485.8,1339.5L1519.8,1339.5L1519.8,1341.5L1485.8,1341.5L1485.8,1339.5ZM1477.8,1327.5L1481.8,1327.5L1481.8,1331.5L1477.8,1331.5L1477.8,1327.5ZM1485.8,1328.5L1519.8,1328.5L1519.8,1330.5L1485.8,1330.5L1485.8,1328.5Z" style="fill:currentColor;stroke:currentColor;"/>
    </g>
</svg>
