<?xml version="1.0" encoding="UTF-8" standalone="no"?>
<!DOCTYPE svg PUBLIC "-//W3C//DTD SVG 1.1//EN" "http://www.w3.org/Graphics/SVG/1.1/DTD/svg11.dtd">
<svg width="100%" height="100%" viewBox="0 0 516 568" version="1.1" xmlns="http://www.w3.org/2000/svg" xmlnsXlink="http://www.w3.org/1999/xlink" xmlSpace="preserve" style="fill-rule:evenodd;clip-rule:evenodd;stroke-miterlimit:7;">
    <g transform="matrix(9.12128,0,0,7.18256,-13466.7,-17547.9)">
        <path d="M1528.44,2511.63L1480.9,2511.63L1485.65,2499.23L1523.68,2499.23L1528.44,2511.63Z" style="fill:none;stroke:currentColor;stroke-width:2.27px;"/>
    </g>
    <g transform="matrix(6.35726,0,0,5.80165,-9307.71,-14168.7)">
        <path d="M1528.44,2511.63L1480.9,2511.63L1485.65,2499.23L1523.68,2499.23L1528.44,2511.63Z" style="fill:none;stroke:currentColor;stroke-width:3.07px;"/>
    </g>
    <g transform="matrix(4.14604,0,0,4.42003,-5980.56,-10770.5)">
        <path d="M1528.44,2511.63L1480.9,2511.63L1485.65,2499.23L1523.68,2499.23L1528.44,2511.63Z" style="fill:none;stroke:currentColor;stroke-width:4.36px;"/>
    </g>
    <g transform="matrix(2.21122,0,0,3.86753,-3069.3,-9437.62)">
        <path d="M1528.44,2511.63L1480.9,2511.63L1485.65,2499.23L1523.68,2499.23L1528.44,2511.63Z" style="fill:none;stroke:currentColor;stroke-width:5.93px;"/>
    </g>
    <g transform="matrix(1,0,0,1,100.568,-9.71293)">
        <rect x="128.808" y="92.302" width="54.602" height="114.245" style="fill:currentColor;"/>
    </g>
    <g transform="matrix(1.58883,0,0,0.986524,-179.88,-9.29581)">
        <path d="M274.955,37.369L303.503,95.778L246.407,95.778L274.955,37.369Z" style="fill:currentColor;"/>
    </g>
</svg>
