<?xml version="1.0" encoding="UTF-8" standalone="no"?>
<!DOCTYPE svg PUBLIC "-//W3C//DTD SVG 1.1//EN" "http://www.w3.org/Graphics/SVG/1.1/DTD/svg11.dtd">
<svg width="100%" height="100%" viewBox="0 0 512 512" version="1.1" xmlns="http://www.w3.org/2000/svg" xmlnsXlink="http://www.w3.org/1999/xlink" xmlSpace="preserve" style="fill-rule:evenodd;clip-rule:evenodd;stroke-miterlimit:7;">
    <g id="Bookmark" transform="matrix(7.81831,2.89104e-31,9.63681e-32,7.81831,46.5904,-3577.3)">
        <path d="M13.504,465.036C9.204,465.036 1.601,470.567 1.601,470.967L1.546,511.188C1.546,511.988 3,513.177 3.6,512.777C8.4,509.877 13.8,506.916 16.9,506.916C20.9,506.916 23.014,510.023 25.014,514.223C25.214,514.623 29.034,514.649 29.234,514.249C31.234,510.049 34.805,505.766 38.905,505.766C42.005,505.766 45.811,508.1 49.992,511.62C50.609,512.139 52.2,510.9 52.2,510.1L52.2,472.1C52.2,471.6 52,471.1 51.7,470.8C48.3,467.1 43.9,465 39.6,465C34.9,465 30.211,465.83 27.111,470.23C23.811,465.93 18.204,465.036 13.504,465.036ZM14.7,468.005C19.4,468.005 22.572,470.031 24.772,474.531L24.861,507.141C22.061,503.141 19.736,502.966 16.936,502.821C13.241,502.63 10.151,503.687 5.251,506.787L5.251,472.677C5.251,472.177 11,468.005 14.7,468.005ZM49.126,507.23C44.226,504.13 42.77,502.738 39.07,502.738C34.67,502.738 30.885,504.884 28.985,507.584L28.985,474.62C30.785,470.52 34.977,467.739 39.677,467.739C43.377,467.739 49.038,472.443 49.038,472.943L49.126,507.23Z" style="fill:currentColor;fill-rule:nonzero;"/>
    </g>
    <g transform="matrix(2.03393e-13,9.49811,-3.13273,1.5099e-14,7828.2,-18582.1)">
        <path d="M1970.53,2467.65C1967.05,2457.53 1965.69,2437.62 1970.53,2427.81" style="fill:none;stroke:rgb(250,92,92);stroke-width:1.18px;"/>
    </g>
    <g transform="matrix(-2.03393e-13,9.49811,3.13273,1.5099e-14,-7309.47,-18583.4)">
        <path d="M1970.53,2467.65C1967.05,2457.53 1965.69,2437.62 1970.53,2427.81" style="fill:none;stroke:rgb(250,92,92);stroke-width:1.18px;"/>
    </g>
    <g transform="matrix(2.03393e-13,9.49811,-3.13273,1.5099e-14,7829.53,-18513.5)">
        <path d="M1970.53,2467.65C1967.05,2457.53 1965.69,2437.62 1970.53,2427.81" style="fill:none;stroke:rgb(250,92,92);stroke-width:1.18px;"/>
    </g>
    <g transform="matrix(2.03393e-13,9.49811,-3.13273,1.5099e-14,7828.53,-18468.8)">
        <path d="M1970.53,2467.65C1967.05,2457.53 1965.69,2437.62 1970.53,2427.81" style="fill:none;stroke:rgb(250,92,92);stroke-width:1.18px;"/>
    </g>
    <g transform="matrix(2.03393e-13,9.49811,-3.13273,1.5099e-14,7828.2,-18425.2)">
        <path d="M1970.53,2467.65C1967.05,2457.53 1965.69,2437.62 1970.53,2427.81" style="fill:none;stroke:rgb(250,92,92);stroke-width:1.18px;"/>
    </g>
    <g transform="matrix(2.03393e-13,9.49811,-3.13273,1.5099e-14,7829.2,-18376.2)">
        <path d="M1970.53,2467.65C1967.05,2457.53 1965.69,2437.62 1970.53,2427.81" style="fill:none;stroke:rgb(250,92,92);stroke-width:1.18px;"/>
    </g>
    <g transform="matrix(-2.03393e-13,9.49811,3.13273,1.5099e-14,-7313.47,-18515.4)">
        <path d="M1970.53,2467.65C1967.05,2457.53 1965.69,2437.62 1970.53,2427.81" style="fill:none;stroke:rgb(250,92,92);stroke-width:1.18px;"/>
    </g>
    <g transform="matrix(-2.03393e-13,9.49811,3.13273,1.5099e-14,-7312.47,-18470.8)">
        <path d="M1970.53,2467.65C1967.05,2457.53 1965.69,2437.62 1970.53,2427.81" style="fill:none;stroke:rgb(250,92,92);stroke-width:1.18px;"/>
    </g>
    <g transform="matrix(-2.03393e-13,9.49811,3.13273,1.5099e-14,-7312.14,-18427.2)">
        <path d="M1970.53,2467.65C1967.05,2457.53 1965.69,2437.62 1970.53,2427.81" style="fill:none;stroke:rgb(250,92,92);stroke-width:1.18px;"/>
    </g>
    <g transform="matrix(-2.03393e-13,9.49811,3.13273,1.5099e-14,-7313.14,-18378.2)">
        <path d="M1970.53,2467.65C1967.05,2457.53 1965.69,2437.62 1970.53,2427.81" style="fill:none;stroke:rgb(250,92,92);stroke-width:1.18px;"/>
    </g>
</svg>
