<?xml version="1.0" encoding="UTF-8" standalone="no"?>
<!DOCTYPE svg PUBLIC "-//W3C//DTD SVG 1.1//EN" "http://www.w3.org/Graphics/SVG/1.1/DTD/svg11.dtd>
<svg width="100%" height="100%" version="1.1" xmlns="http://www.w3.org/2000/svg" xmlnsXlink="http://www.w3.org/1999/xlink" xmlSpace="preserve" style="fill-rule:evenodd;clip-rule:evenodd;stroke-linejoin:round;stroke-miterlimit:2;">
    <g transform="matrix(0.25,0,0,0.25,0,0)">
        <g id="Artboard11">
            <g transform="matrix(1,0,0,1,0,-7.4275)">
                <g transform="matrix(220.13,0,0,220.13,38.2955,210.794)">
                    <path d="M0.023,-0.2L0.023,-0L0.234,-0C0.4,-0 0.489,-0.082 0.489,-0.194C0.489,-0.357 0.265,-0.435 0.265,-0.479C0.265,-0.496 0.276,-0.504 0.328,-0.504L0.461,-0.504L0.461,-0.7L0.261,-0.7C0.138,-0.7 0.025,-0.656 0.025,-0.508C0.025,-0.359 0.237,-0.28 0.237,-0.233C0.237,-0.206 0.22,-0.2 0.156,-0.2L0.023,-0.2Z" style="fill:currentColor;fill-rule:nonzero;"/>
                </g>
                <g transform="matrix(220.13,0,0,220.13,148.36,210.794)">
                    <path d="M0.265,-0L0.265,-0.448C0.265,-0.502 0.28,-0.514 0.315,-0.514C0.35,-0.514 0.365,-0.494 0.365,-0.462C0.365,-0.423 0.328,-0.412 0.295,-0.412L0.295,-0.244C0.347,-0.244 0.357,-0.225 0.357,-0.175L0.357,-0L0.575,-0L0.575,-0.21C0.575,-0.28 0.555,-0.332 0.498,-0.353C0.54,-0.387 0.565,-0.445 0.565,-0.498C0.565,-0.629 0.434,-0.712 0.314,-0.712C0.145,-0.712 0.047,-0.616 0.047,-0.442L0.047,-0L0.265,-0Z" style="fill:currentColor;fill-rule:nonzero;"/>
                </g>
                <g transform="matrix(220.13,0,0,220.13,282.86,210.794)">
                    <path d="M0.272,-0L0.272,-0.5C0.377,-0.5 0.412,-0.42 0.412,-0.35C0.412,-0.262 0.373,-0.206 0.304,-0.2L0.304,-0C0.512,-0 0.634,-0.17 0.634,-0.331C0.634,-0.549 0.497,-0.7 0.275,-0.7L0.054,-0.7L0.054,-0L0.272,-0Z" style="fill:currentColor;fill-rule:nonzero;"/>
                </g>
                <g transform="matrix(220.13,0,0,220.13,429.686,210.794)">
                    <path d="M0.486,-0.2L0.421,-0.2C0.331,-0.2 0.259,-0.258 0.259,-0.349C0.259,-0.442 0.331,-0.5 0.421,-0.5L0.486,-0.5L0.486,-0.7L0.371,-0.7C0.189,-0.7 0.033,-0.551 0.033,-0.349C0.033,-0.149 0.189,-0 0.371,-0L0.486,-0L0.486,-0.2Z" style="fill:currentColor;fill-rule:nonzero;"/>
                </g>
                <g transform="matrix(220.13,0,0,220.13,543.934,210.794)">
                    <path d="M0.297,-0.213L0.364,-0.213L0.364,-0L0.582,-0L0.582,-0.448C0.582,-0.546 0.512,-0.712 0.315,-0.712C0.118,-0.712 0.047,-0.546 0.047,-0.448L0.047,-0L0.265,-0L0.265,-0.453C0.265,-0.489 0.285,-0.51 0.314,-0.51C0.343,-0.51 0.364,-0.489 0.364,-0.453L0.364,-0.391L0.297,-0.391L0.297,-0.213Z" style="fill:currentColor;fill-rule:nonzero;"/>
                </g>
                <g transform="matrix(220.13,0,0,220.13,678.653,210.794)">
                    <path d="M-0.002,-0.5L0.113,-0.5L0.113,-0L0.331,-0L0.331,-0.5L0.447,-0.5L0.447,-0.7L-0.002,-0.7L-0.002,-0.5Z" style="fill:currentColor;fill-rule:nonzero;"/>
                </g>
            </g>
            <g transform="matrix(3.11448,0,0,1,-218.586,0)">
                <rect x="148.292" y="159.34" width="28.964" height="44.026" style="fill:currentColor;"/>
            </g>
            <g transform="matrix(2.30363,0,0,1,185.468,0)">
                <rect x="148.292" y="159.34" width="28.964" height="44.026" style="fill:currentColor;"/>
            </g>
        </g>
    </g>
</svg>