<?xml version="1.0" encoding="UTF-8" standalone="no"?>
<!DOCTYPE svg PUBLIC "-//W3C//DTD SVG 1.1//EN" "http://www.w3.org/Graphics/SVG/1.1/DTD/svg11.dtd">
<svg width="100%" height="100%" viewBox="0 0 512 512" version="1.1" xmlns="http://www.w3.org/2000/svg" xmlnsXlink="http://www.w3.org/1999/xlink" xmlSpace="preserve" style="fill-rule:evenodd;clip-rule:evenodd;stroke-miterlimit:7;">
    <g transform="matrix(2.18223,-1.48193,1.52802,2.11642,-644.721,85.4134)">
        <g>
            <g transform="matrix(4.43061,3.11955,-3.69904,5.25364,552.362,-18817.4)">
                <path d="M1970.53,2467.65C1967.36,2454.3 1988.9,2455.6 1985.73,2442.25" style="fill:none;stroke:rgb(250,92,92);stroke-width:1.71px;"/>
            </g>
            <g transform="matrix(-4.44678,-3.09647,-3.67166,5.27281,18048.4,-6566.53)">
                <path d="M1970.53,2467.65C1967.36,2454.3 1988.9,2455.6 1985.73,2442.25" style="fill:none;stroke:rgb(250,92,92);stroke-width:1.56px;"/>
            </g>
            <g transform="matrix(-3.10802,4.43871,-1.6479,-1.15387,10430.9,-5722.03)">
                <path d="M1970.53,2467.65L1970.53,2427.81" style="fill:none;stroke:currentColor;stroke-width:2.52px;"/>
            </g>
            <g transform="matrix(-3.10802,4.43871,-1.35987,-0.952192,9710.24,-6193.01)">
                <path d="M1970.53,2467.65L1970.53,2427.81" style="fill:none;stroke:currentColor;stroke-width:2.57px;"/>
            </g>
            <g transform="matrix(-3.10802,4.43871,-1.42,-0.994294,9817.88,-6033.75)">
                <path d="M1970.53,2467.65L1970.53,2427.81" style="fill:none;stroke:currentColor;stroke-width:2.56px;"/>
            </g>
            <g transform="matrix(-3.10802,4.43871,-1.80906,-1.26672,10753.5,-5344.19)">
                <path d="M1970.53,2467.65L1970.53,2427.81" style="fill:none;stroke:currentColor;stroke-width:2.48px;"/>
            </g>
        </g>
    </g>
</svg>
