<?xml version="1.0" encoding="UTF-8" standalone="no"?>
<!DOCTYPE svg PUBLIC "-//W3C//DTD SVG 1.1//EN" "http://www.w3.org/Graphics/SVG/1.1/DTD/svg11.dtd">
<svg width="100%" height="100%" viewBox="0 0 512 512" version="1.1" xmlns="http://www.w3.org/2000/svg" xmlnsXlink="http://www.w3.org/1999/xlink" xmlSpace="preserve" style="fill-rule:evenodd;clip-rule:evenodd;stroke-linejoin:round;stroke-miterlimit:2;">
    <g transform="matrix(-9.58274,1.33227e-15,-1.33227e-15,-9.24534,16180.8,8968.28)">
        <g transform="matrix(1,-1.2326e-32,1.2326e-32,-1,1148.92,967.947)">
            <path d="M512,18.809L505.684,24.73L504.316,23.27L513.001,15.129C515.895,17.843 518.79,20.557 521.684,23.271L520.316,24.729L514.001,18.808L514.001,49.129L512,49.129L512,18.809Z" style="fill:none;stroke:currentColor;stroke-width:2.12px;"/>
        </g>
        <g transform="matrix(1,0,0,1,194,-361)">
            <path d="M1487,1325L1449,1325L1449,1287L1463,1287L1463,1289L1451,1289L1451,1323L1485,1323L1485,1289L1473,1289L1473,1287L1487,1287L1487,1325Z" style="fill:none;stroke:currentColor;stroke-width:2.12px;"/>
        </g>
    </g>
</svg>
